<mxfile host="65bd71144e">
    <diagram id="o41ICM8qeJ2ySmI27WpW" name="Page-1">
        <mxGraphModel dx="1198" dy="2133" grid="1" gridSize="10" guides="1" tooltips="1" connect="1" arrows="1" fold="1" page="1" pageScale="1" pageWidth="827" pageHeight="1169" background="#0E1116" math="0" shadow="0">
            <root>
                <mxCell id="0"/>
                <mxCell id="1" parent="0"/>
                <mxCell id="2" value="DashPage(ABC)" style="swimlane;fontStyle=0;childLayout=stackLayout;horizontal=1;startSize=30;horizontalStack=0;resizeParent=1;resizeParentMax=0;resizeLast=0;collapsible=1;marginBottom=0;strokeColor=default;fontColor=#FFFFFF;fillColor=#1A1A1A;" parent="1" vertex="1">
                    <mxGeometry x="730" y="-180" width="220" height="330" as="geometry">
                        <mxRectangle x="190" y="100" width="90" height="30" as="alternateBounds"/>
                    </mxGeometry>
                </mxCell>
                <mxCell id="3" value="module: str" style="text;strokeColor=none;fillColor=#663300;align=left;verticalAlign=middle;spacingLeft=4;spacingRight=4;overflow=hidden;points=[[0,0.5],[1,0.5]];portConstraint=eastwest;rotatable=0;fontColor=#FFFFFF;" parent="2" vertex="1">
                    <mxGeometry y="30" width="220" height="30" as="geometry"/>
                </mxCell>
                <mxCell id="4" value="title: str" style="text;strokeColor=none;fillColor=#663300;align=left;verticalAlign=middle;spacingLeft=4;spacingRight=4;overflow=hidden;points=[[0,0.5],[1,0.5]];portConstraint=eastwest;rotatable=0;fontColor=#FFFFFF;" parent="2" vertex="1">
                    <mxGeometry y="60" width="220" height="30" as="geometry"/>
                </mxCell>
                <mxCell id="11" value="id: str" style="text;strokeColor=none;fillColor=#663300;align=left;verticalAlign=middle;spacingLeft=4;spacingRight=4;overflow=hidden;points=[[0,0.5],[1,0.5]];portConstraint=eastwest;rotatable=0;fontColor=#FFFFFF;" parent="2" vertex="1">
                    <mxGeometry y="90" width="220" height="30" as="geometry"/>
                </mxCell>
                <mxCell id="5" value="order: str" style="text;strokeColor=none;fillColor=#663300;align=left;verticalAlign=middle;spacingLeft=4;spacingRight=4;overflow=hidden;points=[[0,0.5],[1,0.5]];portConstraint=eastwest;rotatable=0;fontColor=#FFFFFF;" parent="2" vertex="1">
                    <mxGeometry y="120" width="220" height="30" as="geometry"/>
                </mxCell>
                <mxCell id="12" value="path: str = None" style="text;strokeColor=none;fillColor=#336600;align=left;verticalAlign=middle;spacingLeft=4;spacingRight=4;overflow=hidden;points=[[0,0.5],[1,0.5]];portConstraint=eastwest;rotatable=0;fontColor=#FFFFFF;" parent="2" vertex="1">
                    <mxGeometry y="150" width="220" height="30" as="geometry"/>
                </mxCell>
                <mxCell id="13" value="actions: dict[str, DashAction]" style="text;strokeColor=none;fillColor=none;align=left;verticalAlign=middle;spacingLeft=4;spacingRight=4;overflow=hidden;points=[[0,0.5],[1,0.5]];portConstraint=eastwest;rotatable=0;fontColor=#FFFFFF;" parent="2" vertex="1">
                    <mxGeometry y="180" width="220" height="30" as="geometry"/>
                </mxCell>
                <mxCell id="14" value="components: dict[str, DashComponent]" style="text;strokeColor=none;fillColor=none;align=left;verticalAlign=middle;spacingLeft=4;spacingRight=4;overflow=hidden;points=[[0,0.5],[1,0.5]];portConstraint=eastwest;rotatable=0;fontColor=#FFFFFF;" parent="2" vertex="1">
                    <mxGeometry y="210" width="220" height="30" as="geometry"/>
                </mxCell>
                <mxCell id="18" value="@abs&#10;create_layout(self) -&gt; list" style="text;strokeColor=none;fillColor=#006666;align=left;verticalAlign=middle;spacingLeft=4;spacingRight=4;overflow=hidden;points=[[0,0.5],[1,0.5]];portConstraint=eastwest;rotatable=0;fontColor=#FFFFFF;" parent="2" vertex="1">
                    <mxGeometry y="240" width="220" height="30" as="geometry"/>
                </mxCell>
                <mxCell id="19" value="setup_callbacks(self, app)" style="text;strokeColor=none;fillColor=none;align=left;verticalAlign=middle;spacingLeft=4;spacingRight=4;overflow=hidden;points=[[0,0.5],[1,0.5]];portConstraint=eastwest;rotatable=0;fontColor=#FFFFFF;" parent="2" vertex="1">
                    <mxGeometry y="270" width="220" height="30" as="geometry"/>
                </mxCell>
                <mxCell id="20" value="create(self)" style="text;strokeColor=none;fillColor=none;align=left;verticalAlign=middle;spacingLeft=4;spacingRight=4;overflow=hidden;points=[[0,0.5],[1,0.5]];portConstraint=eastwest;rotatable=0;fontColor=#FFFFFF;" parent="2" vertex="1">
                    <mxGeometry y="300" width="220" height="30" as="geometry"/>
                </mxCell>
                <mxCell id="64" style="edgeStyle=none;html=1;entryX=0.5;entryY=0;entryDx=0;entryDy=0;fontColor=#FFFFFF;" parent="1" source="6" target="28" edge="1">
                    <mxGeometry relative="1" as="geometry"/>
                </mxCell>
                <mxCell id="6" value="DashComponent(ABC)" style="swimlane;fontStyle=0;childLayout=stackLayout;horizontal=1;startSize=30;horizontalStack=0;resizeParent=1;resizeParentMax=0;resizeLast=0;collapsible=1;marginBottom=0;fontColor=#FFFFFF;fillColor=#1A1A1A;" parent="1" vertex="1">
                    <mxGeometry x="280" y="150" width="230" height="150" as="geometry"/>
                </mxCell>
                <mxCell id="7" value="page_id: str" style="text;strokeColor=none;fillColor=#663300;align=left;verticalAlign=middle;spacingLeft=4;spacingRight=4;overflow=hidden;points=[[0,0.5],[1,0.5]];portConstraint=eastwest;rotatable=0;fontColor=#FFFFFF;" parent="6" vertex="1">
                    <mxGeometry y="30" width="230" height="30" as="geometry"/>
                </mxCell>
                <mxCell id="8" value="actions: dict[str, DashAction] = {}" style="text;strokeColor=none;fillColor=none;align=left;verticalAlign=middle;spacingLeft=4;spacingRight=4;overflow=hidden;points=[[0,0.5],[1,0.5]];portConstraint=eastwest;rotatable=0;fontColor=#FFFFFF;" parent="6" vertex="1">
                    <mxGeometry y="60" width="230" height="30" as="geometry"/>
                </mxCell>
                <mxCell id="9" value="@abs&#10;create_layout(self)" style="text;strokeColor=none;fillColor=#006666;align=left;verticalAlign=middle;spacingLeft=4;spacingRight=4;overflow=hidden;points=[[0,0.5],[1,0.5]];portConstraint=eastwest;rotatable=0;fontColor=#FFFFFF;" parent="6" vertex="1">
                    <mxGeometry y="90" width="230" height="30" as="geometry"/>
                </mxCell>
                <mxCell id="10" value="setup_callbacks(self, app)" style="text;strokeColor=none;fillColor=none;align=left;verticalAlign=middle;spacingLeft=4;spacingRight=4;overflow=hidden;points=[[0,0.5],[1,0.5]];portConstraint=eastwest;rotatable=0;fontColor=#FFFFFF;" parent="6" vertex="1">
                    <mxGeometry y="120" width="230" height="30" as="geometry"/>
                </mxCell>
                <mxCell id="23" value="DashAction(ABC)" style="swimlane;fontStyle=0;childLayout=stackLayout;horizontal=1;startSize=30;horizontalStack=0;resizeParent=1;resizeParentMax=0;resizeLast=0;collapsible=1;marginBottom=0;strokeColor=default;fontColor=#FFFFFF;fillColor=#1A1A1A;" parent="1" vertex="1">
                    <mxGeometry x="1040" y="60" width="180" height="120" as="geometry"/>
                </mxCell>
                <mxCell id="24" value="dataset: Dataset" style="text;strokeColor=none;fillColor=#663300;align=left;verticalAlign=middle;spacingLeft=4;spacingRight=4;overflow=hidden;points=[[0,0.5],[1,0.5]];portConstraint=eastwest;rotatable=0;fontColor=#FFFFFF;" parent="23" vertex="1">
                    <mxGeometry y="30" width="180" height="30" as="geometry"/>
                </mxCell>
                <mxCell id="25" value="page_id: str" style="text;strokeColor=none;fillColor=#663300;align=left;verticalAlign=middle;spacingLeft=4;spacingRight=4;overflow=hidden;points=[[0,0.5],[1,0.5]];portConstraint=eastwest;rotatable=0;fontColor=#FFFFFF;" parent="23" vertex="1">
                    <mxGeometry y="60" width="180" height="30" as="geometry"/>
                </mxCell>
                <mxCell id="26" value="@abs&#10;setup_callbacks(self, app)" style="text;strokeColor=none;fillColor=#006666;align=left;verticalAlign=middle;spacingLeft=4;spacingRight=4;overflow=hidden;points=[[0,0.5],[1,0.5]];portConstraint=eastwest;rotatable=0;fontColor=#FFFFFF;" parent="23" vertex="1">
                    <mxGeometry y="90" width="180" height="30" as="geometry"/>
                </mxCell>
                <mxCell id="28" value="DashFigure(DashComponent, ABC)" style="swimlane;fontStyle=0;childLayout=stackLayout;horizontal=1;startSize=30;horizontalStack=0;resizeParent=1;resizeParentMax=0;resizeLast=0;collapsible=1;marginBottom=0;strokeColor=default;fontColor=#FFFFFF;fillColor=#1A1A1A;" parent="1" vertex="1">
                    <mxGeometry x="10" y="350" width="380" height="180" as="geometry"/>
                </mxCell>
                <mxCell id="29" value="dataset: Dataset" style="text;strokeColor=none;fillColor=#663300;align=left;verticalAlign=middle;spacingLeft=4;spacingRight=4;overflow=hidden;points=[[0,0.5],[1,0.5]];portConstraint=eastwest;rotatable=0;fontColor=#FFFFFF;" parent="28" vertex="1">
                    <mxGeometry y="30" width="380" height="30" as="geometry"/>
                </mxCell>
                <mxCell id="30" value="page_id: str" style="text;strokeColor=none;fillColor=#663300;align=left;verticalAlign=middle;spacingLeft=4;spacingRight=4;overflow=hidden;points=[[0,0.5],[1,0.5]];portConstraint=eastwest;rotatable=0;fontColor=#FFFFFF;" parent="28" vertex="1">
                    <mxGeometry y="60" width="380" height="30" as="geometry"/>
                </mxCell>
                <mxCell id="31" value="loc_class: Literal[main, secondary, bottom]" style="text;strokeColor=none;fillColor=#663300;align=left;verticalAlign=middle;spacingLeft=4;spacingRight=4;overflow=hidden;points=[[0,0.5],[1,0.5]];portConstraint=eastwest;rotatable=0;fontColor=#FFFFFF;" parent="28" vertex="1">
                    <mxGeometry y="90" width="380" height="30" as="geometry"/>
                </mxCell>
                <mxCell id="32" value="@abs&#10;create_layout(self) -&gt; list" style="text;strokeColor=none;fillColor=#006666;align=left;verticalAlign=middle;spacingLeft=4;spacingRight=4;overflow=hidden;points=[[0,0.5],[1,0.5]];portConstraint=eastwest;rotatable=0;fontColor=#FFFFFF;" parent="28" vertex="1">
                    <mxGeometry y="120" width="380" height="30" as="geometry"/>
                </mxCell>
                <mxCell id="33" value="@abs&#10;get_sidebar_params(self) -&gt; list" style="text;strokeColor=none;fillColor=#006666;align=left;verticalAlign=middle;spacingLeft=4;spacingRight=4;overflow=hidden;points=[[0,0.5],[1,0.5]];portConstraint=eastwest;rotatable=0;fontColor=#FFFFFF;" parent="28" vertex="1">
                    <mxGeometry y="150" width="380" height="30" as="geometry"/>
                </mxCell>
                <mxCell id="34" value="Sidebar(DashComponent)" style="swimlane;fontStyle=0;childLayout=stackLayout;horizontal=1;startSize=30;horizontalStack=0;resizeParent=1;resizeParentMax=0;resizeLast=0;collapsible=1;marginBottom=0;strokeColor=default;fontColor=#FFFFFF;fillColor=#1A1A1A;" parent="1" vertex="1">
                    <mxGeometry x="580" y="210" width="230" height="330" as="geometry"/>
                </mxCell>
                <mxCell id="35" value="page_id:str" style="text;strokeColor=none;fillColor=#663300;align=left;verticalAlign=middle;spacingLeft=4;spacingRight=4;overflow=hidden;points=[[0,0.5],[1,0.5]];portConstraint=eastwest;rotatable=0;fontColor=#FFFFFF;" parent="34" vertex="1">
                    <mxGeometry y="30" width="230" height="30" as="geometry"/>
                </mxCell>
                <mxCell id="36" value="title:str" style="text;strokeColor=none;fillColor=#663300;align=left;verticalAlign=middle;spacingLeft=4;spacingRight=4;overflow=hidden;points=[[0,0.5],[1,0.5]];portConstraint=eastwest;rotatable=0;shadow=0;fontColor=#FFFFFF;" parent="34" vertex="1">
                    <mxGeometry y="60" width="230" height="30" as="geometry"/>
                </mxCell>
                <mxCell id="37" value="params_children" style="text;strokeColor=none;fillColor=#663300;align=left;verticalAlign=middle;spacingLeft=4;spacingRight=4;overflow=hidden;points=[[0,0.5],[1,0.5]];portConstraint=eastwest;rotatable=0;fontColor=#FFFFFF;" parent="34" vertex="1">
                    <mxGeometry y="90" width="230" height="30" as="geometry"/>
                </mxCell>
                <mxCell id="38" value="apply_btn_id: str" style="text;strokeColor=none;fillColor=#663300;align=left;verticalAlign=middle;spacingLeft=4;spacingRight=4;overflow=hidden;points=[[0,0.5],[1,0.5]];portConstraint=eastwest;rotatable=0;fontColor=#FFFFFF;" parent="34" vertex="1">
                    <mxGeometry y="120" width="230" height="30" as="geometry"/>
                </mxCell>
                <mxCell id="39" value="side: Literal[left, right]" style="text;strokeColor=none;fillColor=#663300;align=left;verticalAlign=middle;spacingLeft=4;spacingRight=4;overflow=hidden;points=[[0,0.5],[1,0.5]];portConstraint=eastwest;rotatable=0;fontColor=#FFFFFF;" parent="34" vertex="1">
                    <mxGeometry y="150" width="230" height="30" as="geometry"/>
                </mxCell>
                <mxCell id="40" value="row: Literal[&quot;top&quot;, &quot;bot&quot;]" style="text;strokeColor=none;fillColor=#663300;align=left;verticalAlign=middle;spacingLeft=4;spacingRight=4;overflow=hidden;points=[[0,0.5],[1,0.5]];portConstraint=eastwest;rotatable=0;fontColor=#FFFFFF;" parent="34" vertex="1">
                    <mxGeometry y="180" width="230" height="30" as="geometry"/>
                </mxCell>
                <mxCell id="41" value="btn_text: str = &quot;Apply&quot;" style="text;strokeColor=none;fillColor=#336600;align=left;verticalAlign=middle;spacingLeft=4;spacingRight=4;overflow=hidden;points=[[0,0.5],[1,0.5]];portConstraint=eastwest;rotatable=0;fontColor=#FFFFFF;" parent="34" vertex="1">
                    <mxGeometry y="210" width="230" height="30" as="geometry"/>
                </mxCell>
                <mxCell id="42" value="id: str" style="text;strokeColor=none;fillColor=none;align=left;verticalAlign=middle;spacingLeft=4;spacingRight=4;overflow=hidden;points=[[0,0.5],[1,0.5]];portConstraint=eastwest;rotatable=0;fontColor=#FFFFFF;" parent="34" vertex="1">
                    <mxGeometry y="240" width="230" height="30" as="geometry"/>
                </mxCell>
                <mxCell id="43" value="actions: dict[str, DashAction]" style="text;strokeColor=none;fillColor=none;align=left;verticalAlign=middle;spacingLeft=4;spacingRight=4;overflow=hidden;points=[[0,0.5],[1,0.5]];portConstraint=eastwest;rotatable=0;fontColor=#FFFFFF;" parent="34" vertex="1">
                    <mxGeometry y="270" width="230" height="30" as="geometry"/>
                </mxCell>
                <mxCell id="44" value="create_layout(self)" style="text;strokeColor=none;fillColor=none;align=left;verticalAlign=middle;spacingLeft=4;spacingRight=4;overflow=hidden;points=[[0,0.5],[1,0.5]];portConstraint=eastwest;rotatable=0;fontColor=#FFFFFF;" parent="34" vertex="1">
                    <mxGeometry y="300" width="230" height="30" as="geometry"/>
                </mxCell>
                <mxCell id="47" value="CollapsibleDiv(DashComponent)" style="swimlane;fontStyle=0;childLayout=stackLayout;horizontal=1;startSize=30;horizontalStack=0;resizeParent=1;resizeParentMax=0;resizeLast=0;collapsible=1;marginBottom=0;strokeColor=default;fontColor=#FFFFFF;fillColor=#1A1A1A;" parent="1" vertex="1">
                    <mxGeometry x="410" y="570" width="230" height="240" as="geometry"/>
                </mxCell>
                <mxCell id="48" value="page_id: str" style="text;strokeColor=none;fillColor=#663300;align=left;verticalAlign=middle;spacingLeft=4;spacingRight=4;overflow=hidden;points=[[0,0.5],[1,0.5]];portConstraint=eastwest;rotatable=0;fontColor=#FFFFFF;" parent="47" vertex="1">
                    <mxGeometry y="30" width="230" height="30" as="geometry"/>
                </mxCell>
                <mxCell id="49" value="div_id: str" style="text;strokeColor=none;fillColor=#663300;align=left;verticalAlign=middle;spacingLeft=4;spacingRight=4;overflow=hidden;points=[[0,0.5],[1,0.5]];portConstraint=eastwest;rotatable=0;fontColor=#FFFFFF;" parent="47" vertex="1">
                    <mxGeometry y="60" width="230" height="30" as="geometry"/>
                </mxCell>
                <mxCell id="50" value="children" style="text;strokeColor=none;fillColor=#663300;align=left;verticalAlign=middle;spacingLeft=4;spacingRight=4;overflow=hidden;points=[[0,0.5],[1,0.5]];portConstraint=eastwest;rotatable=0;fontColor=#FFFFFF;" parent="47" vertex="1">
                    <mxGeometry y="90" width="230" height="30" as="geometry"/>
                </mxCell>
                <mxCell id="51" value="collapse_btn_id: str" style="text;strokeColor=none;fillColor=#663300;align=left;verticalAlign=middle;spacingLeft=4;spacingRight=4;overflow=hidden;points=[[0,0.5],[1,0.5]];portConstraint=eastwest;rotatable=0;fontColor=#FFFFFF;" parent="47" vertex="1">
                    <mxGeometry y="120" width="230" height="30" as="geometry"/>
                </mxCell>
                <mxCell id="52" value="collapsed: bool = True" style="text;strokeColor=none;fillColor=#336600;align=left;verticalAlign=middle;spacingLeft=4;spacingRight=4;overflow=hidden;points=[[0,0.5],[1,0.5]];portConstraint=eastwest;rotatable=0;fontColor=#FFFFFF;" parent="47" vertex="1">
                    <mxGeometry y="150" width="230" height="30" as="geometry"/>
                </mxCell>
                <mxCell id="53" value="actions: dict[str, DashAction]" style="text;strokeColor=none;fillColor=none;align=left;verticalAlign=middle;spacingLeft=4;spacingRight=4;overflow=hidden;points=[[0,0.5],[1,0.5]];portConstraint=eastwest;rotatable=0;fontColor=#FFFFFF;" parent="47" vertex="1">
                    <mxGeometry y="180" width="230" height="30" as="geometry"/>
                </mxCell>
                <mxCell id="58" value="create_layout(self)" style="text;strokeColor=none;fillColor=none;align=left;verticalAlign=middle;spacingLeft=4;spacingRight=4;overflow=hidden;points=[[0,0.5],[1,0.5]];portConstraint=eastwest;rotatable=0;fontColor=#FFFFFF;" parent="47" vertex="1">
                    <mxGeometry y="210" width="230" height="30" as="geometry"/>
                </mxCell>
                <mxCell id="60" style="edgeStyle=none;html=1;exitX=0;exitY=0.5;exitDx=0;exitDy=0;entryX=0.5;entryY=0;entryDx=0;entryDy=0;fontColor=#FFFFFF;" parent="1" source="14" target="6" edge="1">
                    <mxGeometry relative="1" as="geometry"/>
                </mxCell>
                <mxCell id="61" style="edgeStyle=none;html=1;exitX=1;exitY=0.5;exitDx=0;exitDy=0;entryX=0.5;entryY=0;entryDx=0;entryDy=0;fontColor=#FFFFFF;" parent="1" source="13" target="23" edge="1">
                    <mxGeometry relative="1" as="geometry"/>
                </mxCell>
                <mxCell id="65" style="edgeStyle=none;html=1;entryX=0.5;entryY=0;entryDx=0;entryDy=0;exitX=1.01;exitY=0.114;exitDx=0;exitDy=0;exitPerimeter=0;fontColor=#FFFFFF;" parent="1" source="6" target="34" edge="1">
                    <mxGeometry relative="1" as="geometry"/>
                </mxCell>
                <mxCell id="66" style="edgeStyle=none;html=1;entryX=0.5;entryY=0;entryDx=0;entryDy=0;fontColor=#FFFFFF;" parent="1" source="10" target="47" edge="1">
                    <mxGeometry relative="1" as="geometry"/>
                </mxCell>
                <mxCell id="67" value="Heatmap(DashFigure)" style="swimlane;fontStyle=0;childLayout=stackLayout;horizontal=1;startSize=30;horizontalStack=0;resizeParent=1;resizeParentMax=0;resizeLast=0;collapsible=1;marginBottom=0;strokeColor=default;fontColor=#FFFFFF;fillColor=#1A1A1A;" parent="1" vertex="1">
                    <mxGeometry x="20" y="560" width="140" height="60" as="geometry"/>
                </mxCell>
                <mxCell id="69" value="@static&#10;plot(dataset, params)" style="text;strokeColor=none;fillColor=none;align=left;verticalAlign=middle;spacingLeft=4;spacingRight=4;overflow=hidden;points=[[0,0.5],[1,0.5]];portConstraint=eastwest;rotatable=0;fontColor=#FFFFFF;" parent="67" vertex="1">
                    <mxGeometry y="30" width="140" height="30" as="geometry"/>
                </mxCell>
                <mxCell id="71" value="Projection(DashFigure)" style="swimlane;fontStyle=0;childLayout=stackLayout;horizontal=1;startSize=30;horizontalStack=0;resizeParent=1;resizeParentMax=0;resizeLast=0;collapsible=1;marginBottom=0;strokeColor=default;fontColor=#FFFFFF;fillColor=#1A1A1A;" parent="1" vertex="1">
                    <mxGeometry x="20" y="650" width="140" height="60" as="geometry"/>
                </mxCell>
                <mxCell id="75" value="App" style="swimlane;fontStyle=0;childLayout=stackLayout;horizontal=1;startSize=30;horizontalStack=0;resizeParent=1;resizeParentMax=0;resizeLast=0;collapsible=1;marginBottom=0;strokeColor=default;fontColor=#FFFFFF;fillColor=#1A1A1A;" parent="1" vertex="1">
                    <mxGeometry x="720" y="-520" width="220" height="120" as="geometry"/>
                </mxCell>
                <mxCell id="76" value="dataset: Dataset" style="text;strokeColor=none;fillColor=none;align=left;verticalAlign=middle;spacingLeft=4;spacingRight=4;overflow=hidden;points=[[0,0.5],[1,0.5]];portConstraint=eastwest;rotatable=0;fontColor=#FFFFFF;" parent="75" vertex="1">
                    <mxGeometry y="30" width="220" height="30" as="geometry"/>
                </mxCell>
                <mxCell id="77" value="dash_app: dash" style="text;strokeColor=none;fillColor=none;align=left;verticalAlign=middle;spacingLeft=4;spacingRight=4;overflow=hidden;points=[[0,0.5],[1,0.5]];portConstraint=eastwest;rotatable=0;fontColor=#FFFFFF;" parent="75" vertex="1">
                    <mxGeometry y="60" width="220" height="30" as="geometry"/>
                </mxCell>
                <mxCell id="78" value="run(self)" style="text;strokeColor=none;fillColor=none;align=left;verticalAlign=middle;spacingLeft=4;spacingRight=4;overflow=hidden;points=[[0,0.5],[1,0.5]];portConstraint=eastwest;rotatable=0;fontColor=#FFFFFF;" parent="75" vertex="1">
                    <mxGeometry y="90" width="220" height="30" as="geometry"/>
                </mxCell>
                <mxCell id="79" value="Dataset" style="swimlane;fontStyle=0;childLayout=stackLayout;horizontal=1;startSize=30;horizontalStack=0;resizeParent=1;resizeParentMax=0;resizeLast=0;collapsible=1;marginBottom=0;strokeColor=default;fontColor=#FFFFFF;fillColor=#1A1A1A;" parent="1" vertex="1">
                    <mxGeometry x="1130" y="-430" width="300" height="90" as="geometry"/>
                </mxCell>
                <mxCell id="80" value="path: str" style="text;strokeColor=none;fillColor=#663300;align=left;verticalAlign=middle;spacingLeft=4;spacingRight=4;overflow=hidden;points=[[0,0.5],[1,0.5]];portConstraint=eastwest;rotatable=0;fontColor=#FFFFFF;" parent="79" vertex="1">
                    <mxGeometry y="30" width="300" height="30" as="geometry"/>
                </mxCell>
                <mxCell id="81" value="adata: AnnData" style="text;strokeColor=none;fillColor=none;align=left;verticalAlign=middle;spacingLeft=4;spacingRight=4;overflow=hidden;points=[[0,0.5],[1,0.5]];portConstraint=eastwest;rotatable=0;fontColor=#FFFFFF;" parent="79" vertex="1">
                    <mxGeometry y="60" width="300" height="30" as="geometry"/>
                </mxCell>
                <mxCell id="85" style="edgeStyle=none;html=1;exitX=1;exitY=0.5;exitDx=0;exitDy=0;entryX=0.5;entryY=0;entryDx=0;entryDy=0;fontColor=#FFFFFF;" parent="1" source="76" target="79" edge="1">
                    <mxGeometry relative="1" as="geometry"/>
                </mxCell>
                <mxCell id="86" value="Param" style="swimlane;fontStyle=0;childLayout=stackLayout;horizontal=1;startSize=30;horizontalStack=0;resizeParent=1;resizeParentMax=0;resizeLast=0;collapsible=1;marginBottom=0;strokeColor=default;fontColor=#FFFFFF;fillColor=#1A1A1A;" parent="1" vertex="1">
                    <mxGeometry x="10" y="-510" width="260" height="480" as="geometry"/>
                </mxCell>
                <mxCell id="87" value="key: str" style="text;strokeColor=none;fillColor=#663300;align=left;verticalAlign=middle;spacingLeft=4;spacingRight=4;overflow=hidden;points=[[0,0.5],[1,0.5]];portConstraint=eastwest;rotatable=0;fontColor=#FFFFFF;" parent="86" vertex="1">
                    <mxGeometry y="30" width="260" height="30" as="geometry"/>
                </mxCell>
                <mxCell id="88" value="name: str" style="text;strokeColor=none;fillColor=#663300;align=left;verticalAlign=middle;spacingLeft=4;spacingRight=4;overflow=hidden;points=[[0,0.5],[1,0.5]];portConstraint=eastwest;rotatable=0;fontColor=#FFFFFF;" parent="86" vertex="1">
                    <mxGeometry y="60" width="260" height="30" as="geometry"/>
                </mxCell>
                <mxCell id="89" value="default: any" style="text;strokeColor=#005700;fillColor=#336600;align=left;verticalAlign=middle;spacingLeft=4;spacingRight=4;overflow=hidden;points=[[0,0.5],[1,0.5]];portConstraint=eastwest;rotatable=0;fontColor=#FFFFFF;" parent="86" vertex="1">
                    <mxGeometry y="90" width="260" height="30" as="geometry"/>
                </mxCell>
                <mxCell id="90" value="type: type" style="text;strokeColor=none;fillColor=#663300;align=left;verticalAlign=middle;spacingLeft=4;spacingRight=4;overflow=hidden;points=[[0,0.5],[1,0.5]];portConstraint=eastwest;rotatable=0;fontColor=#FFFFFF;" parent="86" vertex="1">
                    <mxGeometry y="120" width="260" height="30" as="geometry"/>
                </mxCell>
                <mxCell id="91" value="description: str = &quot;&quot;" style="text;strokeColor=none;fillColor=#336600;align=left;verticalAlign=middle;spacingLeft=4;spacingRight=4;overflow=hidden;points=[[0,0.5],[1,0.5]];portConstraint=eastwest;rotatable=0;fontColor=#FFFFFF;" parent="86" vertex="1">
                    <mxGeometry y="150" width="260" height="30" as="geometry"/>
                </mxCell>
                <mxCell id="92" value="allowed_values: list = None" style="text;strokeColor=none;fillColor=#336600;align=left;verticalAlign=middle;spacingLeft=4;spacingRight=4;overflow=hidden;points=[[0,0.5],[1,0.5]];portConstraint=eastwest;rotatable=0;fontColor=#FFFFFF;" parent="86" vertex="1">
                    <mxGeometry y="180" width="260" height="30" as="geometry"/>
                </mxCell>
                <mxCell id="93" value="placeholder: str = None" style="text;strokeColor=none;fillColor=#336600;align=left;verticalAlign=middle;spacingLeft=4;spacingRight=4;overflow=hidden;points=[[0,0.5],[1,0.5]];portConstraint=eastwest;rotatable=0;fontColor=#FFFFFF;" parent="86" vertex="1">
                    <mxGeometry y="210" width="260" height="30" as="geometry"/>
                </mxCell>
                <mxCell id="94" value="nullable: bool = False" style="text;strokeColor=none;fillColor=#336600;align=left;verticalAlign=middle;spacingLeft=4;spacingRight=4;overflow=hidden;points=[[0,0.5],[1,0.5]];portConstraint=eastwest;rotatable=0;fontColor=#FFFFFF;" parent="86" vertex="1">
                    <mxGeometry y="240" width="260" height="30" as="geometry"/>
                </mxCell>
                <mxCell id="95" value="_min: int = None" style="text;strokeColor=none;fillColor=#336600;align=left;verticalAlign=middle;spacingLeft=4;spacingRight=4;overflow=hidden;points=[[0,0.5],[1,0.5]];portConstraint=eastwest;rotatable=0;fontColor=#FFFFFF;" parent="86" vertex="1">
                    <mxGeometry y="270" width="260" height="30" as="geometry"/>
                </mxCell>
                <mxCell id="96" value="_max: int = None" style="text;strokeColor=none;fillColor=#336600;align=left;verticalAlign=middle;spacingLeft=4;spacingRight=4;overflow=hidden;points=[[0,0.5],[1,0.5]];portConstraint=eastwest;rotatable=0;fontColor=#FFFFFF;" parent="86" vertex="1">
                    <mxGeometry y="300" width="260" height="30" as="geometry"/>
                </mxCell>
                <mxCell id="97" value="step: int = None" style="text;strokeColor=none;fillColor=#336600;align=left;verticalAlign=middle;spacingLeft=4;spacingRight=4;overflow=hidden;points=[[0,0.5],[1,0.5]];portConstraint=eastwest;rotatable=0;fontColor=#FFFFFF;" parent="86" vertex="1">
                    <mxGeometry y="330" width="260" height="30" as="geometry"/>
                </mxCell>
                <mxCell id="98" value="step: int = None" style="text;strokeColor=none;fillColor=#336600;align=left;verticalAlign=middle;spacingLeft=4;spacingRight=4;overflow=hidden;points=[[0,0.5],[1,0.5]];portConstraint=eastwest;rotatable=0;fontColor=#FFFFFF;" parent="86" vertex="1">
                    <mxGeometry y="360" width="260" height="30" as="geometry"/>
                </mxCell>
                <mxCell id="99" value="step: int = None" style="text;strokeColor=none;fillColor=#336600;align=left;verticalAlign=middle;spacingLeft=4;spacingRight=4;overflow=hidden;points=[[0,0.5],[1,0.5]];portConstraint=eastwest;rotatable=0;fontColor=#FFFFFF;" parent="86" vertex="1">
                    <mxGeometry y="390" width="260" height="30" as="geometry"/>
                </mxCell>
                <mxCell id="100" value="step: int = None" style="text;strokeColor=none;fillColor=#336600;align=left;verticalAlign=middle;spacingLeft=4;spacingRight=4;overflow=hidden;points=[[0,0.5],[1,0.5]];portConstraint=eastwest;rotatable=0;fontColor=#FFFFFF;" parent="86" vertex="1">
                    <mxGeometry y="420" width="260" height="30" as="geometry"/>
                </mxCell>
                <mxCell id="101" value="step: int = None" style="text;strokeColor=none;fillColor=#336600;align=left;verticalAlign=middle;spacingLeft=4;spacingRight=4;overflow=hidden;points=[[0,0.5],[1,0.5]];portConstraint=eastwest;rotatable=0;fontColor=#FFFFFF;" parent="86" vertex="1">
                    <mxGeometry y="450" width="260" height="30" as="geometry"/>
                </mxCell>
                <mxCell id="102" value="ParamsDict" style="swimlane;fontStyle=0;childLayout=stackLayout;horizontal=1;startSize=30;horizontalStack=0;resizeParent=1;resizeParentMax=0;resizeLast=0;collapsible=1;marginBottom=0;strokeColor=default;fontColor=#FFFFFF;fillColor=#1A1A1A;" parent="1" vertex="1">
                    <mxGeometry x="320" y="-320" width="350" height="270" as="geometry"/>
                </mxCell>
                <mxCell id="103" value="params: dict[str, Param]" style="text;strokeColor=none;fillColor=#663300;align=left;verticalAlign=middle;spacingLeft=4;spacingRight=4;overflow=hidden;points=[[0,0.5],[1,0.5]];portConstraint=eastwest;rotatable=0;fontColor=#FFFFFF;" parent="102" vertex="1">
                    <mxGeometry y="30" width="350" height="30" as="geometry"/>
                </mxCell>
                <mxCell id="104" value="&#10;update(self, params_dict: dict) -&gt; self" style="text;strokeColor=none;fillColor=none;align=left;verticalAlign=middle;spacingLeft=4;spacingRight=4;overflow=hidden;points=[[0,0.5],[1,0.5]];portConstraint=eastwest;rotatable=0;fontColor=#FFFFFF;" parent="102" vertex="1">
                    <mxGeometry y="60" width="350" height="30" as="geometry"/>
                </mxCell>
                <mxCell id="105" value="add(self, param: Param)" style="text;strokeColor=none;fillColor=none;align=left;verticalAlign=middle;spacingLeft=4;spacingRight=4;overflow=hidden;points=[[0,0.5],[1,0.5]];portConstraint=eastwest;rotatable=0;fontColor=#FFFFFF;" parent="102" vertex="1">
                    <mxGeometry y="90" width="350" height="30" as="geometry"/>
                </mxCell>
                <mxCell id="106" value="remove(self, key: str) -&gt; Param" style="text;strokeColor=none;fillColor=none;align=left;verticalAlign=middle;spacingLeft=4;spacingRight=4;overflow=hidden;points=[[0,0.5],[1,0.5]];portConstraint=eastwest;rotatable=0;fontColor=#FFFFFF;" parent="102" vertex="1">
                    <mxGeometry y="120" width="350" height="30" as="geometry"/>
                </mxCell>
                <mxCell id="107" value="keys(self) -&gt; list[str]" style="text;strokeColor=none;fillColor=none;align=left;verticalAlign=middle;spacingLeft=4;spacingRight=4;overflow=hidden;points=[[0,0.5],[1,0.5]];portConstraint=eastwest;rotatable=0;fontColor=#FFFFFF;" parent="102" vertex="1">
                    <mxGeometry y="150" width="350" height="30" as="geometry"/>
                </mxCell>
                <mxCell id="108" value="values(self) -&gt; list[Param]" style="text;strokeColor=none;fillColor=none;align=left;verticalAlign=middle;spacingLeft=4;spacingRight=4;overflow=hidden;points=[[0,0.5],[1,0.5]];portConstraint=eastwest;rotatable=0;fontColor=#FFFFFF;" parent="102" vertex="1">
                    <mxGeometry y="180" width="350" height="30" as="geometry"/>
                </mxCell>
                <mxCell id="109" value="items(self) -&gt; list[str], list[Param " style="text;strokeColor=none;fillColor=none;align=left;verticalAlign=middle;spacingLeft=4;spacingRight=4;overflow=hidden;points=[[0,0.5],[1,0.5]];portConstraint=eastwest;rotatable=0;fontColor=#FFFFFF;" parent="102" vertex="1">
                    <mxGeometry y="210" width="350" height="30" as="geometry"/>
                </mxCell>
                <mxCell id="110" value="unravel(self) -&gt; dict[str, any]" style="text;strokeColor=none;fillColor=none;align=left;verticalAlign=middle;spacingLeft=4;spacingRight=4;overflow=hidden;points=[[0,0.5],[1,0.5]];portConstraint=eastwest;rotatable=0;fontColor=#FFFFFF;" parent="102" vertex="1">
                    <mxGeometry y="240" width="350" height="30" as="geometry"/>
                </mxCell>
                <mxCell id="111" style="edgeStyle=none;html=1;exitX=0;exitY=0.5;exitDx=0;exitDy=0;entryX=1.002;entryY=0.854;entryDx=0;entryDy=0;entryPerimeter=0;fontColor=#FFFFFF;" parent="1" source="103" target="93" edge="1">
                    <mxGeometry relative="1" as="geometry"/>
                </mxCell>
                <mxCell id="113" value="ExportData(DashAction, ABC)" style="swimlane;fontStyle=0;childLayout=stackLayout;horizontal=1;startSize=30;horizontalStack=0;resizeParent=1;resizeParentMax=0;resizeLast=0;collapsible=1;marginBottom=0;strokeColor=default;fontColor=#FFFFFF;fillColor=#1A1A1A;" parent="1" vertex="1">
                    <mxGeometry x="1320" y="-300" width="290" height="260" as="geometry"/>
                </mxCell>
                <mxCell id="114" value="dataset: Dataset" style="text;strokeColor=none;fillColor=#663300;align=left;verticalAlign=middle;spacingLeft=4;spacingRight=4;overflow=hidden;points=[[0,0.5],[1,0.5]];portConstraint=eastwest;rotatable=0;fontColor=#FFFFFF;" parent="113" vertex="1">
                    <mxGeometry y="30" width="290" height="30" as="geometry"/>
                </mxCell>
                <mxCell id="115" value="id: str" style="text;strokeColor=none;fillColor=#663300;align=left;verticalAlign=middle;spacingLeft=4;spacingRight=4;overflow=hidden;points=[[0,0.5],[1,0.5]];portConstraint=eastwest;rotatable=0;fontColor=#FFFFFF;" parent="113" vertex="1">
                    <mxGeometry y="60" width="290" height="30" as="geometry"/>
                </mxCell>
                <mxCell id="116" value="filename_ph: str" style="text;strokeColor=none;fillColor=#663300;align=left;verticalAlign=middle;spacingLeft=4;spacingRight=4;overflow=hidden;points=[[0,0.5],[1,0.5]];portConstraint=eastwest;rotatable=0;fontColor=#FFFFFF;" parent="113" vertex="1">
                    <mxGeometry y="90" width="290" height="30" as="geometry"/>
                </mxCell>
                <mxCell id="117" value="page_id: str" style="text;strokeColor=none;fillColor=#663300;align=left;verticalAlign=middle;spacingLeft=4;spacingRight=4;overflow=hidden;points=[[0,0.5],[1,0.5]];portConstraint=eastwest;rotatable=0;fontColor=#FFFFFF;" parent="113" vertex="1">
                    <mxGeometry y="120" width="290" height="30" as="geometry"/>
                </mxCell>
                <mxCell id="118" value="formats: list[FileFormat] = [CSV, TSV, Pickle]" style="text;strokeColor=none;fillColor=#336600;align=left;verticalAlign=middle;spacingLeft=4;spacingRight=4;overflow=hidden;points=[[0,0.5],[1,0.5]];portConstraint=eastwest;rotatable=0;fontColor=#FFFFFF;" parent="113" vertex="1">
                    <mxGeometry y="150" width="290" height="30" as="geometry"/>
                </mxCell>
                <mxCell id="119" value="@staticmethod&#10;@abs&#10;_params_layout(self)" style="text;strokeColor=none;fillColor=#006666;align=left;verticalAlign=middle;spacingLeft=4;spacingRight=4;overflow=hidden;points=[[0,0.5],[1,0.5]];portConstraint=eastwest;rotatable=0;fontColor=#FFFFFF;" parent="113" vertex="1">
                    <mxGeometry y="180" width="290" height="50" as="geometry"/>
                </mxCell>
                <mxCell id="120" value="get_layout(self)" style="text;strokeColor=none;fillColor=none;align=left;verticalAlign=middle;spacingLeft=4;spacingRight=4;overflow=hidden;points=[[0,0.5],[1,0.5]];portConstraint=eastwest;rotatable=0;fontColor=#FFFFFF;" parent="113" vertex="1">
                    <mxGeometry y="230" width="290" height="30" as="geometry"/>
                </mxCell>
                <mxCell id="122" value="FileFormat(ABC)" style="swimlane;fontStyle=0;childLayout=stackLayout;horizontal=1;startSize=30;horizontalStack=0;resizeParent=1;resizeParentMax=0;resizeLast=0;collapsible=1;marginBottom=0;strokeColor=default;fontColor=#FFFFFF;fillColor=#1A1A1A;" parent="1" vertex="1">
                    <mxGeometry x="1110" y="-300" width="140" height="180" as="geometry"/>
                </mxCell>
                <mxCell id="123" value="@static&#10;@abs&#10;ext() -&gt; str" style="text;strokeColor=none;fillColor=#006666;align=left;verticalAlign=middle;spacingLeft=4;spacingRight=4;overflow=hidden;points=[[0,0.5],[1,0.5]];portConstraint=eastwest;rotatable=0;fontColor=#FFFFFF;" parent="122" vertex="1">
                    <mxGeometry y="30" width="140" height="50" as="geometry"/>
                </mxCell>
                <mxCell id="131" value="@static&#10;@abs&#10;name() -&gt; str" style="text;strokeColor=none;fillColor=#006666;align=left;verticalAlign=middle;spacingLeft=4;spacingRight=4;overflow=hidden;points=[[0,0.5],[1,0.5]];portConstraint=eastwest;rotatable=0;fontColor=#FFFFFF;" parent="122" vertex="1">
                    <mxGeometry y="80" width="140" height="50" as="geometry"/>
                </mxCell>
                <mxCell id="132" value="@static&#10;@abs&#10;desc() -&gt; str" style="text;strokeColor=none;fillColor=#006666;align=left;verticalAlign=middle;spacingLeft=4;spacingRight=4;overflow=hidden;points=[[0,0.5],[1,0.5]];portConstraint=eastwest;rotatable=0;fontColor=#FFFFFF;" parent="122" vertex="1">
                    <mxGeometry y="130" width="140" height="50" as="geometry"/>
                </mxCell>
            </root>
        </mxGraphModel>
    </diagram>
</mxfile>